<svg xmlns="http://www.w3.org/2000/svg" viewBox="0 0 1200 630" role="img" aria-labelledby="title desc">
  <title id="title">Junior developers exploring manufacturing software</title>
  <desc id="desc">An abstract illustration of junior software developers moving from generic code projects toward manufacturing software and domain understanding.</desc>
  <defs>
    <linearGradient id="sky" x1="0" y1="0" x2="1" y2="1">
      <stop offset="0" stop-color="#fbfcf8"/>
      <stop offset="0.55" stop-color="#edf5ef"/>
      <stop offset="1" stop-color="#dfeee7"/>
    </linearGradient>
    <linearGradient id="path" x1="0" y1="0" x2="1" y2="0">
      <stop offset="0" stop-color="#d9e7df"/>
      <stop offset="1" stop-color="#aac6ba"/>
    </linearGradient>
    <filter id="shadow" x="-20%" y="-20%" width="140%" height="140%">
      <feDropShadow dx="0" dy="14" stdDeviation="16" flood-color="#14342b" flood-opacity="0.13"/>
    </filter>
  </defs>

  <rect width="1200" height="630" fill="url(#sky)"/>
  <path d="M0 500 C150 455 275 498 415 458 C585 409 710 462 878 415 C1015 377 1110 394 1200 350 L1200 630 L0 630 Z" fill="#d7e6de"/>
  <path d="M88 552 C290 480 455 464 600 472 C760 481 880 532 1112 459 L1072 630 L108 630 Z" fill="url(#path)"/>

  <g filter="url(#shadow)">
    <rect x="82" y="98" width="308" height="236" rx="8" fill="#ffffff" stroke="#cfdbd5"/>
    <rect x="112" y="128" width="248" height="32" rx="6" fill="#e7eee9"/>
    <circle cx="132" cy="144" r="5" fill="#0e6b55"/>
    <circle cx="151" cy="144" r="5" fill="#90aaa0"/>
    <circle cx="170" cy="144" r="5" fill="#c4d3cc"/>
    <rect x="116" y="190" width="178" height="12" rx="6" fill="#a5b8af"/>
    <rect x="116" y="220" width="224" height="12" rx="6" fill="#b8c8c0"/>
    <rect x="116" y="250" width="138" height="12" rx="6" fill="#a5b8af"/>
    <rect x="116" y="280" width="196" height="12" rx="6" fill="#0e6b55"/>
    <text x="112" y="370" fill="#4f605a" font-family="Arial, sans-serif" font-size="20">generic projects</text>
  </g>

  <g filter="url(#shadow)">
    <rect x="810" y="84" width="312" height="250" rx="8" fill="#ffffff" stroke="#cfdbd5"/>
    <rect x="854" y="142" width="64" height="128" rx="6" fill="#dce8e2" stroke="#b9cbc2"/>
    <rect x="938" y="112" width="64" height="158" rx="6" fill="#dce8e2" stroke="#b9cbc2"/>
    <rect x="1022" y="172" width="46" height="98" rx="6" fill="#dce8e2" stroke="#b9cbc2"/>
    <path d="M836 272 H1084" stroke="#839990" stroke-width="9" stroke-linecap="round"/>
    <circle cx="882" cy="300" r="15" fill="#0e6b55"/>
    <circle cx="978" cy="300" r="15" fill="#0e6b55"/>
    <circle cx="1050" cy="300" r="15" fill="#0e6b55"/>
    <path d="M886 142 V102 H1045 V172" fill="none" stroke="#90aaa0" stroke-width="7" stroke-linecap="round"/>
    <text x="838" y="370" fill="#4f605a" font-family="Arial, sans-serif" font-size="20">manufacturing domain</text>
  </g>

  <g>
    <path d="M410 224 C496 198 542 216 610 264 C678 312 724 322 798 286" fill="none" stroke="#0e6b55" stroke-width="10" stroke-linecap="round"/>
    <path d="M768 266 L802 284 L768 306" fill="none" stroke="#0e6b55" stroke-width="10" stroke-linecap="round" stroke-linejoin="round"/>
    <text x="484" y="188" fill="#18211f" font-family="Arial, sans-serif" font-size="26" font-weight="700">differentiate with domain understanding</text>
  </g>

  <g filter="url(#shadow)">
    <circle cx="422" cy="472" r="36" fill="#ffffff" stroke="#cfdbd5"/>
    <circle cx="422" cy="454" r="12" fill="#0e6b55"/>
    <path d="M397 492 C405 475 439 475 447 492" fill="none" stroke="#0e6b55" stroke-width="8" stroke-linecap="round"/>
    <rect x="381" y="520" width="82" height="18" rx="9" fill="#ffffff" stroke="#cfdbd5"/>
  </g>

  <g filter="url(#shadow)">
    <circle cx="560" cy="438" r="36" fill="#ffffff" stroke="#cfdbd5"/>
    <circle cx="560" cy="420" r="12" fill="#0e6b55"/>
    <path d="M535 458 C543 441 577 441 585 458" fill="none" stroke="#0e6b55" stroke-width="8" stroke-linecap="round"/>
    <rect x="519" y="486" width="82" height="18" rx="9" fill="#ffffff" stroke="#cfdbd5"/>
  </g>

  <g filter="url(#shadow)">
    <circle cx="698" cy="472" r="36" fill="#ffffff" stroke="#cfdbd5"/>
    <circle cx="698" cy="454" r="12" fill="#0e6b55"/>
    <path d="M673 492 C681 475 715 475 723 492" fill="none" stroke="#0e6b55" stroke-width="8" stroke-linecap="round"/>
    <rect x="657" y="520" width="82" height="18" rx="9" fill="#ffffff" stroke="#cfdbd5"/>
  </g>

  <g opacity="0.94">
    <rect x="470" y="350" width="260" height="54" rx="8" fill="#ffffff" stroke="#cfdbd5"/>
    <text x="500" y="384" fill="#18211f" font-family="Arial, sans-serif" font-size="21" font-weight="700">What should I learn next?</text>
  </g>
</svg>
